<svg width="100%" height="100%" id="svg" viewBox="0 0 1440 590" xmlns="http://www.w3.org/2000/svg" class="transition duration-300 ease-in-out delay-150"><defs><linearGradient id="gradient" x1="50%" y1="100%" x2="50%" y2="0%"><stop offset="5%" stop-color="#354691"></stop><stop offset="95%" stop-color="#354691"></stop></linearGradient></defs><path d="M 0,600 C 0,600 0,200 0,200 C 110,164.8 220,129.6 401,149 C 582,168.4 834,242.39999999999998 1019,260 C 1204,277.6 1322,238.8 1440,200 C 1440,200 1440,600 1440,600 Z" stroke="none" stroke-width="0" fill="url(#gradient)" fill-opacity="0.53" class="transition-all duration-300 ease-in-out delay-150 path-0"></path><defs><linearGradient id="gradient" x1="50%" y1="100%" x2="50%" y2="0%"><stop offset="5%" stop-color="#354691"></stop><stop offset="95%" stop-color="#354691"></stop></linearGradient></defs><path d="M 0,600 C 0,600 0,400 0,400 C 152.13333333333333,438.4 304.26666666666665,476.8 463,467 C 621.7333333333333,457.2 787.0666666666666,399.2 951,380 C 1114.9333333333334,360.8 1277.4666666666667,380.4 1440,400 C 1440,400 1440,600 1440,600 Z" stroke="none" stroke-width="0" fill="url(#gradient)" fill-opacity="1" class="transition-all duration-300 ease-in-out delay-150 path-1"></path></svg>