<svg width="100%" height="100%" id="svg" viewBox="0 0 1440 590" xmlns="http://www.w3.org/2000/svg" class="transition duration-300 ease-in-out delay-150"><defs><linearGradient id="gradient" x1="0%" y1="50%" x2="100%" y2="50%"><stop offset="5%" stop-color="#354691"></stop><stop offset="95%" stop-color="#354691"></stop></linearGradient></defs><path d="M 0,600 C 0,600 0,200 0,200 C 124.13333333333333,222.53333333333333 248.26666666666665,245.06666666666666 407,234 C 565.7333333333333,222.93333333333334 759.0666666666666,178.26666666666665 937,167 C 1114.9333333333334,155.73333333333335 1277.4666666666667,177.86666666666667 1440,200 C 1440,200 1440,600 1440,600 Z" stroke="none" stroke-width="0" fill="url(#gradient)" fill-opacity="0.53" class="transition-all duration-300 ease-in-out delay-150 path-0"></path><defs><linearGradient id="gradient" x1="0%" y1="50%" x2="100%" y2="50%"><stop offset="5%" stop-color="#354691"></stop><stop offset="95%" stop-color="#354691"></stop></linearGradient></defs><path d="M 0,600 C 0,600 0,400 0,400 C 142.8,374.66666666666663 285.6,349.3333333333333 430,371 C 574.4,392.6666666666667 720.4000000000001,461.33333333333337 889,474 C 1057.6,486.66666666666663 1248.8,443.3333333333333 1440,400 C 1440,400 1440,600 1440,600 Z" stroke="none" stroke-width="0" fill="url(#gradient)" fill-opacity="1" class="transition-all duration-300 ease-in-out delay-150 path-1"></path></svg>