<svg width="100%" height="100%" id="svg" viewBox="0 0 1440 590" xmlns="http://www.w3.org/2000/svg" class="transition duration-300 ease-in-out delay-150"><defs><linearGradient id="gradient" x1="0%" y1="50%" x2="100%" y2="50%"><stop offset="5%" stop-color="#354691"></stop><stop offset="95%" stop-color="#354691"></stop></linearGradient></defs><path d="M 0,600 C 0,600 0,200 0,200 C 180.40000000000003,178 360.80000000000007,156 509,147 C 657.1999999999999,138 773.2,142.00000000000003 923,153 C 1072.8,163.99999999999997 1256.4,182 1440,200 C 1440,200 1440,600 1440,600 Z" stroke="none" stroke-width="0" fill="url(#gradient)" fill-opacity="0.53" class="transition-all duration-300 ease-in-out delay-150 path-0"></path><defs><linearGradient id="gradient" x1="0%" y1="50%" x2="100%" y2="50%"><stop offset="5%" stop-color="#354691"></stop><stop offset="95%" stop-color="#354691"></stop></linearGradient></defs><path d="M 0,600 C 0,600 0,400 0,400 C 183.86666666666667,356.1333333333333 367.73333333333335,312.2666666666667 537,332 C 706.2666666666667,351.7333333333333 860.9333333333334,435.06666666666666 1009,457 C 1157.0666666666666,478.93333333333334 1298.5333333333333,439.4666666666667 1440,400 C 1440,400 1440,600 1440,600 Z" stroke="none" stroke-width="0" fill="url(#gradient)" fill-opacity="1" class="transition-all duration-300 ease-in-out delay-150 path-1"></path></svg>